HIERARCHY
ROOT SpineBase
{
  OFFSET 0.000000 0.000000 0.000000
  CHANNELS 6 Xposition Yposition Zposition Zrotation Xrotation Yrotation
  JOINT SpineMid
  {
    OFFSET -0.000000 25.819584 0.000000
    CHANNELS 3 Zrotation Xrotation Yrotation
    JOINT SpineShoulder
    {
      OFFSET -0.125368 19.264153 -0.552902
      CHANNELS 3 Zrotation Xrotation Yrotation
      JOINT Neck
      {
        OFFSET -0.032494 6.390438 -0.451026
        CHANNELS 3 Zrotation Xrotation Yrotation
        JOINT Head
        {
          OFFSET 0.713306 14.066443 -0.228921
          CHANNELS 3 Zrotation Xrotation Yrotation
          End Site
          {
            OFFSET 0 0 0
          }
        }
      }
      JOINT ShoulderLeft
      {
        OFFSET -17.148397 -2.876883 -1.275827
        CHANNELS 3 Zrotation Xrotation Yrotation
        JOINT ElbowLeft
        {
          OFFSET -1.966337 -20.452233 -4.193047
          CHANNELS 3 Zrotation Xrotation Yrotation
          JOINT WristLeft
          {
            OFFSET 9.422711 -14.466926 -18.671444
            CHANNELS 3 Zrotation Xrotation Yrotation
            JOINT HandLeft
            {
              OFFSET 4.209439 -2.045153 -5.991524
              CHANNELS 3 Zrotation Xrotation Yrotation
              JOINT HandTipLeft
              {
                OFFSET 6.193372 -1.868758 -6.242408
                CHANNELS 3 Zrotation Xrotation Yrotation
                End Site
                {
                  OFFSET 0 0 0
                }
              }
              JOINT ThumbLeft
              {
                OFFSET -4.820356 -2.276588 -2.132841
                CHANNELS 3 Zrotation Xrotation Yrotation
                End Site
                {
                  OFFSET 0 0 0
                }
              }
            }
          }
        }
      }
      JOINT ShoulderRight
      {
        OFFSET 16.479195 -3.003933 -1.789589
        CHANNELS 3 Zrotation Xrotation Yrotation
        JOINT ElbowRight
        {
          OFFSET 2.117354 -20.732889 -4.355930
          CHANNELS 3 Zrotation Xrotation Yrotation
          JOINT WristRight
          {
            OFFSET -4.926566 -13.282117 -14.892697
            CHANNELS 3 Zrotation Xrotation Yrotation
            JOINT HandRight
            {
              OFFSET -3.442441 -3.336413 -4.992466
              CHANNELS 3 Zrotation Xrotation Yrotation
              JOINT HandTipRight
              {
                OFFSET -4.601795 -1.908474 -9.930644
                CHANNELS 3 Zrotation Xrotation Yrotation
                End Site
                {
                  OFFSET 0 0 0
                }
              }
              JOINT ThumbRight
              {
                OFFSET 1.774855 -3.166435 -1.686977
                CHANNELS 3 Zrotation Xrotation Yrotation
                End Site
                {
                  OFFSET 0 0 0
                }
              }
            }
          }
        }
      }
    }
  }
  JOINT HipLeft
  {
    OFFSET -8.055231 0.861666 -3.102312
    CHANNELS 3 Zrotation Xrotation Yrotation
    JOINT KneeLeft
    {
      OFFSET -14.445492 -4.037040 -32.678801
      CHANNELS 3 Zrotation Xrotation Yrotation
      JOINT AnkleLeft
      {
        OFFSET 3.677981 -33.878896 0.542529
        CHANNELS 3 Zrotation Xrotation Yrotation
        JOINT FootLeft
        {
          OFFSET 0.048391 -3.759452 -12.861426
          CHANNELS 3 Zrotation Xrotation Yrotation
          End Site
          {
            OFFSET 0 0 0
          }
        }
      }
    }
  }
  JOINT HipRight
  {
    OFFSET 7.775802 0.941447 -3.530204
    CHANNELS 3 Zrotation Xrotation Yrotation
    JOINT KneeRight
    {
      OFFSET 17.878778 -4.095717 -29.794665
      CHANNELS 3 Zrotation Xrotation Yrotation
      JOINT AnkleRight
      {
        OFFSET 6.176796 -31.454628 4.812463
        CHANNELS 3 Zrotation Xrotation Yrotation
        JOINT FootRight
        {
          OFFSET 6.104092 -5.769945 -4.333517
          CHANNELS 3 Zrotation Xrotation Yrotation
          End Site
          {
            OFFSET 0 0 0
          }
        }
      }
    }
  }
}
MOTION
Frames: 13
Frame Time: 0.033333
15.585837 44.705484 372.134789 0.000000 0.000000 1.548251 -0.000000 0.000000 -1.548251 -0.000000 0.000000 0.000000 -0.000000 0.000000 0.000000 0.000000 0.000000 0.000000 -0.000000 0.000000 0.000000 -0.000000 0.000000 0.000000 -0.000000 0.000000 0.000000 -0.000000 0.000000 0.000000 0.000000 0.000000 0.000000 0.000000 0.000000 0.000000 -0.000000 0.000000 0.000000 -0.000000 0.000000 0.000000 -0.000000 0.000000 0.000000 -0.000000 0.000000 0.000000 0.000000 0.000000 0.000000 0.000000 0.000000 0.000000 -0.000000 0.000000 -1.548251 -0.000000 0.000000 0.000000 -0.000000 0.000000 0.000000 0.000000 0.000000 0.000000 -0.000000 0.000000 -1.548251 -0.000000 0.000000 0.000000 -0.000000 0.000000 0.000000 0.000000 0.000000 0.000000
15.906955 44.767096 371.988870 0.450046 0.249607 1.038440 -0.454499 -0.241402 -1.040378 -0.000000 0.000000 0.000000 -0.000000 0.000000 0.000000 0.000000 0.000000 0.000000 -0.000000 0.000000 0.000000 -3.243806 -2.092004 2.886360 6.369019 4.115349 -6.438138 -6.309379 -5.118677 8.202824 0.000000 0.000000 0.000000 0.000000 0.000000 0.000000 -0.000000 0.000000 0.000000 -0.000000 0.000000 0.000000 -0.000000 0.000000 0.000000 -0.000000 0.000000 0.000000 0.000000 0.000000 0.000000 0.000000 0.000000 0.000000 -0.454499 -0.241402 -1.040378 -0.000000 0.000000 0.000000 -0.144817 -1.130928 0.496204 0.000000 0.000000 0.000000 -0.454499 -0.241402 -1.040378 -0.000000 0.000000 0.000000 -0.000000 0.000000 0.000000 0.000000 0.000000 0.000000
16.169836 44.821808 371.859897 0.807995 0.466926 0.624809 -0.813065 -0.458041 -0.631352 -0.000000 0.000000 0.000000 -0.000000 0.000000 0.000000 0.000000 0.000000 0.000000 -0.000000 0.000000 0.000000 -5.822634 -3.918359 5.164722 12.468821 7.238873 -12.601460 -11.215950 -10.177661 14.808894 0.000000 0.000000 0.000000 0.000000 0.000000 0.000000 -0.000000 0.000000 0.000000 -0.000000 0.000000 0.000000 -0.550707 0.200778 0.613213 0.548531 -0.206651 -0.611259 0.000000 0.000000 0.000000 0.000000 0.000000 0.000000 -0.892324 -0.582913 0.455204 0.080246 0.124238 -1.087362 -0.241524 -1.926821 0.846096 0.000000 0.000000 0.000000 -0.813065 -0.458041 -0.631352 -0.579543 -0.832254 -0.256282 1.426683 1.209635 -0.012096 0.000000 0.000000 0.000000
16.374480 44.869622 371.747868 1.073452 0.651771 0.308546 -1.077015 -0.645867 -0.320722 -0.000000 0.000000 0.000000 -0.000000 0.000000 0.000000 0.000000 0.000000 0.000000 -0.000000 0.000000 0.000000 -7.693418 -5.333847 6.809169 17.509956 9.264056 -17.666589 -14.662001 -14.364007 19.687862 0.000000 0.000000 0.000000 0.000000 0.000000 0.000000 -0.000000 0.000000 0.000000 -0.000000 0.000000 0.000000 -0.773598 0.293040 0.848054 0.341447 0.272122 0.020350 0.000000 0.000000 0.000000 0.000000 0.000000 0.000000 -1.173935 -0.836666 1.153942 0.100738 0.188807 -1.476084 -0.292896 -2.357828 1.038785 0.000000 0.000000 0.000000 -1.391382 -0.952516 0.632797 -0.488342 -0.827610 -1.307463 1.979657 1.504775 -0.216220 0.000000 0.000000 0.000000
16.520887 44.910537 371.652783 1.246128 0.804011 0.090531 -0.478782 -0.509401 -0.075248 -0.768286 -0.293505 -0.025928 -0.000000 0.000000 0.000000 0.000000 0.000000 0.000000 -0.000000 0.000000 0.000000 -8.842583 -6.236984 7.819032 20.594642 10.263339 -20.699636 -16.573364 -16.869399 22.676204 0.000000 0.000000 0.000000 0.000000 0.000000 0.000000 -0.000000 0.000000 0.000000 -0.000000 0.000000 0.000000 -0.960309 0.380249 1.033750 0.436787 0.289671 0.044513 0.000000 0.000000 0.000000 0.000000 0.000000 0.000000 -1.347937 -1.060081 1.650340 0.107805 0.255230 -1.760217 -0.300666 -2.407363 1.068083 0.000000 0.000000 0.000000 -1.637209 -1.206357 0.989534 -0.568961 -0.970320 -1.526398 2.427127 1.590442 -0.548382 0.000000 0.000000 0.000000
16.609057 44.944553 371.574643 1.325822 0.923551 -0.028636 -0.473623 -0.560110 0.045114 -0.852102 -0.363247 -0.029521 -0.000000 0.000000 0.000000 0.000000 0.000000 0.000000 -0.000000 0.000000 0.000000 -9.265306 -6.565391 8.198018 21.003892 10.356431 -20.955832 -16.855037 -17.070697 23.611162 0.000000 0.000000 0.000000 0.000000 0.000000 0.000000 -0.000000 0.000000 0.000000 -0.000000 0.000000 0.000000 -1.110177 0.462609 1.169644 0.522445 0.270031 0.076143 0.000000 0.000000 0.000000 0.000000 0.000000 0.000000 -1.415717 -1.250800 1.944312 0.101211 0.323584 -1.939048 -0.265020 -2.072962 0.932931 0.000000 0.000000 0.000000 -1.777139 -1.422725 1.162531 -0.604931 -1.048403 -1.636123 2.768234 1.463835 -1.007588 0.000000 0.000000 0.000000
16.643576 44.987643 371.425974 1.306689 1.136918 -0.128037 -0.389354 -0.632810 0.145829 -0.916191 -0.504480 -0.033610 -0.000000 0.000000 0.000000 0.000000 0.000000 0.000000 -0.000000 0.000000 0.000000 -8.594028 -6.066427 7.581075 16.392734 8.333299 -16.796210 -13.466331 -11.969366 21.500107 0.000000 0.000000 0.000000 0.000000 0.000000 0.000000 -0.000000 0.000000 0.000000 -0.000000 0.000000 0.000000 -1.042281 0.312851 1.223196 0.138264 0.945093 0.429859 0.000000 0.000000 0.000000 0.000000 0.000000 0.000000 -1.364238 -1.572434 2.199693 0.076396 0.430279 -2.099296 -0.000000 0.000000 0.000000 0.000000 0.000000 0.000000 -1.837500 -1.802651 1.148618 -0.601851 -1.080907 -1.582594 2.763571 0.546841 -2.060764 0.000000 0.000000 0.000000
16.534479 45.010304 371.358010 1.060653 1.211105 0.106088 -0.180903 -0.618426 -0.085307 -0.881197 -0.591892 -0.033692 -0.258206 0.789103 -0.042440 0.000000 0.000000 0.000000 -0.000000 0.000000 0.000000 -5.561360 -3.522660 5.075964 8.140304 4.915039 -7.144447 -7.309794 -4.874801 13.303422 0.000000 0.000000 0.000000 0.000000 0.000000 0.000000 -0.000000 0.000000 0.000000 -0.000000 0.000000 0.000000 -1.250986 0.473369 1.364873 0.132349 0.959448 0.923694 0.000000 0.000000 0.000000 0.000000 0.000000 0.000000 -1.066497 -1.727800 1.816886 0.019816 0.518501 -1.945578 0.194890 1.613799 -0.618870 0.000000 0.000000 0.000000 -1.626257 -1.971499 0.659150 -0.541138 -1.006331 -1.324847 2.918694 -0.102676 -2.903617 0.000000 0.000000 0.000000
16.462658 44.978302 371.397975 0.870227 1.082004 0.414141 -0.018445 -0.485768 -0.390457 -0.855590 -0.595691 -0.032878 -0.000000 0.000000 0.000000 0.000000 0.000000 0.000000 -0.000000 0.000000 0.000000 -4.976350 -2.948919 4.661750 5.285617 3.593700 -2.728279 -3.724808 -1.170709 10.693399 0.000000 0.000000 0.000000 0.000000 0.000000 0.000000 -0.000000 0.000000 0.000000 -0.000000 0.000000 0.000000 -1.589848 0.906268 1.419428 0.593543 0.367501 0.568725 0.000000 0.000000 0.000000 0.000000 0.000000 0.000000 -0.872341 -1.567834 1.314687 0.005458 0.492279 -1.745177 0.548369 4.033655 -1.644997 0.000000 0.000000 0.000000 -1.433698 -1.839640 0.247024 -0.498154 -0.854991 -1.174817 2.824942 -1.299422 -4.010977 0.000000 0.000000 0.000000
16.407243 44.971108 371.418357 0.734898 1.041574 0.687929 0.051303 -0.412117 -0.664464 -0.791442 -0.629733 -0.031160 -0.000000 0.000000 0.000000 0.000000 0.000000 0.000000 -0.553214 -0.645392 0.172473 -3.521839 -1.634687 3.739736 2.973744 2.077360 -0.274336 -1.011217 1.258814 8.385894 0.000000 0.000000 0.000000 0.000000 0.000000 0.000000 -0.000000 0.000000 0.000000 -0.000000 0.000000 0.000000 -1.739718 0.983756 1.558790 1.134100 -0.332223 -0.135584 0.000000 0.000000 0.000000 0.000000 0.000000 0.000000 -0.708903 -1.561980 0.888999 -0.030345 0.529925 -1.589331 0.238424 2.100598 -0.746172 0.000000 0.000000 0.000000 -1.305453 -1.820498 -0.157999 -0.448062 -0.758187 -1.017718 2.881841 -1.268483 -3.993602 0.000000 0.000000 0.000000
16.270378 44.998684 371.387585 0.514724 1.076418 1.019530 0.154938 -0.366580 -0.996672 -0.676468 -0.712364 -0.028253 -0.000000 0.000000 0.000000 0.000000 0.000000 0.000000 -0.000000 0.000000 0.000000 -3.730058 -2.227859 3.450813 1.890715 1.463025 1.015076 -0.063038 1.730587 6.444828 0.000000 0.000000 0.000000 0.000000 0.000000 0.000000 -0.000000 0.000000 0.000000 -0.000000 0.000000 0.000000 -1.773564 0.741633 1.852670 1.602498 -0.977913 -0.649507 0.000000 0.000000 0.000000 0.000000 0.000000 0.000000 -0.416252 -1.725420 0.342989 -0.113679 0.659064 -1.368806 0.209685 2.118099 -0.652661 0.000000 0.000000 0.000000 -1.192183 -2.265404 -1.776301 -1.242468 -0.087346 0.199495 5.767255 -2.716504 -6.549828 0.000000 0.000000 0.000000
16.157056 45.068433 371.363514 0.288829 1.278251 0.698390 0.156163 -0.444374 -0.679720 -0.450677 -0.835665 -0.021656 -0.902074 0.513440 -0.036664 0.000000 0.000000 0.000000 -0.463217 1.682926 -0.059838 -2.652542 -5.073896 1.804414 1.024252 1.839328 1.528675 -1.133740 0.416863 4.812737 0.000000 0.000000 0.000000 0.000000 0.000000 0.000000 -0.000000 0.000000 0.000000 0.092185 -1.233677 0.359688 -2.964162 2.427566 2.712888 3.246688 -3.272563 -0.818673 0.000000 0.000000 0.000000 0.000000 0.000000 0.000000 -0.092210 -2.107369 0.553800 -0.204162 0.834748 -1.251048 0.240487 2.173974 -0.750555 0.000000 0.000000 0.000000 -0.965872 -2.485545 -1.420495 -0.922964 0.164479 0.260704 6.471784 0.302256 -3.971677 0.000000 0.000000 0.000000
15.922599 45.209904 371.575015 -0.124790 1.123337 0.160015 0.234302 -0.319191 -0.147772 -0.110540 -0.804776 -0.009185 -1.890324 0.981839 -0.064313 0.000000 0.000000 0.000000 -0.887502 3.813399 -0.154098 -1.447609 -8.386132 0.012035 -1.308201 -0.679071 -0.157289 -1.042030 2.195279 7.436868 0.000000 0.000000 0.000000 0.000000 0.000000 0.000000 -0.173464 1.423754 0.183558 0.055496 -3.631135 0.774091 -1.127523 1.857396 1.340696 2.546961 -3.920401 1.157473 0.000000 0.000000 0.000000 0.000000 0.000000 0.000000 0.522683 -2.246693 0.675486 -0.387739 1.127608 -0.817475 0.333518 2.179129 -1.050845 0.000000 0.000000 0.000000 -0.631003 -2.376611 -0.217451 0.747954 1.255575 0.028668 3.613629 5.038100 2.305880 0.000000 0.000000 0.000000
